<svg xmlns="http://www.w3.org/2000/svg" width="1024" height="1024" viewBox="0 0 1024 1024" fill="none">
  <defs>
    <linearGradient id="tile" x1="176" y1="126" x2="844" y2="914" gradientUnits="userSpaceOnUse">
      <stop offset="0" stop-color="#FFFFFF"/>
      <stop offset="0.58" stop-color="#F1F5F7"/>
      <stop offset="1" stop-color="#DCE7EC"/>
    </linearGradient>
    <linearGradient id="tile-edge" x1="152" y1="106" x2="884" y2="930" gradientUnits="userSpaceOnUse">
      <stop offset="0" stop-color="#FFFFFF" stop-opacity="0.96"/>
      <stop offset="0.5" stop-color="#93A9B9" stop-opacity="0.24"/>
      <stop offset="1" stop-color="#2A9C9B" stop-opacity="0.28"/>
    </linearGradient>
    <linearGradient id="accent" x1="350" y1="308" x2="688" y2="716" gradientUnits="userSpaceOnUse">
      <stop offset="0" stop-color="#20B8A9"/>
      <stop offset="0.52" stop-color="#0B83D0"/>
      <stop offset="1" stop-color="#155DCC"/>
    </linearGradient>
    <linearGradient id="ink" x1="302" y1="280" x2="724" y2="748" gradientUnits="userSpaceOnUse">
      <stop offset="0" stop-color="#26384B"/>
      <stop offset="1" stop-color="#122033"/>
    </linearGradient>
    <filter id="tile-shadow" x="38" y="38" width="948" height="966" filterUnits="userSpaceOnUse" color-interpolation-filters="sRGB">
      <feDropShadow dx="0" dy="30" stdDeviation="38" flood-color="#18314A" flood-opacity="0.2"/>
      <feDropShadow dx="0" dy="4" stdDeviation="7" flood-color="#10243A" flood-opacity="0.1"/>
    </filter>
    <filter id="mark-shadow" x="226" y="236" width="572" height="568" filterUnits="userSpaceOnUse" color-interpolation-filters="sRGB">
      <feDropShadow dx="0" dy="13" stdDeviation="14" flood-color="#13263B" flood-opacity="0.2"/>
    </filter>
  </defs>

  <g filter="url(#tile-shadow)">
    <rect x="88" y="76" width="848" height="872" rx="212" fill="url(#tile)"/>
    <rect x="105" y="93" width="814" height="838" rx="195" stroke="url(#tile-edge)" stroke-width="20"/>
  </g>

  <path d="M248 194C294 162 350 148 418 148H606C674 148 730 162 776 194" stroke="#FFFFFF" stroke-opacity="0.7" stroke-width="16" stroke-linecap="round"/>

  <g filter="url(#mark-shadow)">
    <path d="M304 710V314" stroke="url(#ink)" stroke-width="92" stroke-linecap="round"/>
    <path d="M720 710V314" stroke="url(#ink)" stroke-width="92" stroke-linecap="round"/>
    <path d="M326 322L698 702" stroke="url(#accent)" stroke-width="98" stroke-linecap="round"/>
    <path d="M339 317L704 690" stroke="#FFFFFF" stroke-opacity="0.16" stroke-width="18" stroke-linecap="round"/>
  </g>
</svg>
